<?xml version="1.0" standalone="no"?>
<!DOCTYPE svg PUBLIC "-//W3C//DTD SVG 20010904//EN"
 "http://www.w3.org/TR/2001/REC-SVG-20010904/DTD/svg10.dtd">
<svg version="1.0" xmlns="http://www.w3.org/2000/svg"
 width="1400.000000pt" height="1400.000000pt" viewBox="0 0 1400.000000 1400.000000"
 preserveAspectRatio="xMidYMid meet">
<metadata>
Created by potrace 1.11, written by Peter Selinger 2001-2013
</metadata>
<g transform="translate(0.000000,1400.000000) scale(0.100000,-0.100000)"
fill="#000000" stroke="none">
<path d="M7555 12566 c-58 -18 -96 -40 -136 -78 -46 -44 -64 -74 -83 -139 -15
-49 -16 -442 -14 -4099 l3 -4045 22 -45 c33 -66 97 -128 161 -158 78 -36 184
-36 262 0 64 29 132 98 163 166 l22 47 0 4060 0 4060 -26 55 c-67 141 -232
219 -374 176z"/>
<path d="M6265 10418 c-103 -35 -169 -99 -205 -200 -18 -52 -18 -145 -17
-3453 l2 -3400 27 -56 c35 -70 87 -122 157 -157 47 -23 68 -27 132 -26 131 2
234 67 287 182 l27 57 3 3385 c2 2462 0 3399 -8 3437 -38 178 -233 289 -405
231z"/>
<path d="M8825 9909 c-104 -32 -187 -117 -215 -220 -10 -34 -12 -631 -12
-2544 0 -2205 2 -2505 15 -2541 52 -141 156 -216 302 -218 69 -1 88 3 138 27
35 18 75 49 103 81 85 96 77 -171 79 2637 1 2082 -1 2515 -12 2559 -43 169
-229 272 -398 219z"/>
<path d="M5032 8388 c-114 -17 -209 -95 -252 -208 -21 -55 -24 -5503 -2 -5575
27 -94 85 -159 177 -201 119 -55 263 -27 356 69 43 46 75 103 85 157 9 49 8
5445 -1 5500 -29 173 -187 285 -363 258z"/>
<path d="M10080 7828 c-36 -14 -74 -40 -110 -77 -102 -102 -94 43 -95 -1641 0
-806 3 -1482 7 -1503 37 -176 203 -286 377 -251 129 27 222 119 249 249 4 22
7 704 7 1515 -2 1461 -2 1475 -22 1527 -62 157 -257 243 -413 181z"/>
<path d="M3713 6306 c-112 -36 -197 -129 -220 -241 -5 -22 -9 -904 -8 -1960
l1 -1920 27 -60 c32 -68 64 -106 121 -142 134 -86 318 -57 415 65 28 37 58 94
69 132 2 8 4 875 6 1925 1 1383 -2 1924 -10 1961 -21 99 -91 186 -180 226 -56
24 -167 32 -221 14z"/>
<path d="M11364 5653 c-102 -44 -173 -122 -198 -220 -9 -36 -12 -191 -11 -608
2 -609 1 -593 60 -683 38 -57 119 -112 190 -128 45 -10 135 -4 176 12 103 40
179 126 202 229 18 85 16 1132 -3 1190 -26 81 -80 145 -158 191 -60 35 -194
44 -258 17z"/>
<path d="M12625 4351 c-74 -34 -123 -82 -161 -157 l-29 -57 0 -281 0 -281 33
-67 c69 -141 220 -209 371 -168 110 29 205 133 225 244 4 21 7 150 7 286 0
292 -9 329 -91 411 -69 69 -119 91 -215 95 -70 2 -87 -1 -140 -25z"/>
<path d="M2422 4182 c-94 -34 -177 -122 -203 -215 -9 -31 -12 -325 -12 -1112
0 -1068 0 -1070 22 -1126 11 -30 41 -76 65 -102 152 -164 418 -123 518 80 l33
68 1 1065 c0 586 -4 1083 -8 1105 -22 98 -95 187 -186 227 -66 30 -163 33
-230 10z"/>
<path d="M1166 2804 c-62 -16 -138 -68 -175 -119 -60 -84 -62 -95 -62 -569 0
-464 0 -468 54 -553 28 -44 70 -79 137 -113 63 -33 185 -34 252 -3 66 30 133
96 165 162 l28 56 1 435 c2 476 0 494 -57 577 -75 108 -215 160 -343 127z"/>
</g>
</svg>
